<?xml version="1.0" encoding="utf-8"?>
<!-- Generator: Adobe Illustrator 18.0.0, SVG Export Plug-In . SVG Version: 6.00 Build 0)  -->
<!DOCTYPE svg PUBLIC "-//W3C//DTD SVG 1.1//EN" "http://www.w3.org/Graphics/SVG/1.1/DTD/svg11.dtd">
<svg version="1.1" id="Layer_1" xmlns="http://www.w3.org/2000/svg" xmlns:xlink="http://www.w3.org/1999/xlink" x="0px" y="0px"
	 viewBox="0 0 64 64" enable-background="new 0 0 64 64" xml:space="preserve">
<g>
	<g id="XMLID_8_">
		<g>
			<g>
				<path fill="#FFFFFF" d="M47,24c0.6,0,1.1-0.4,1.1-1c0-0.5-0.5-1-1.1-1H16.8c-0.6,0-1.1,0.5-1.1,1c0,0.6,0.5,1,1.1,1H47z
					 M47.2,16H17c-0.6,0-1.1,0.5-1.1,1s0.5,1,1.1,1h30.2c0.6,0,1.1-0.5,1.1-1S47.9,16,47.2,16z M53.3,30.4L41,41l-3-3H26l-3,3
					L10.7,30.4L11,30V15v-4c0-1.1,0.9-2,2-2h7h24h7c1.1,0,2,0.9,2,2v4v15L53.3,30.4z"/>
			</g>
			<g>
				<path fill="#D3D5DD" d="M15.6,23c0-0.5,0.5-1,1.1-1H47c0.6,0,1.1,0.5,1.1,1c0,0.6-0.5,1-1.1,1H16.8C16.1,24,15.6,23.5,15.6,23z"
					/>
			</g>
			<g>
				<path fill="#D3D5DD" d="M47.2,16c0.6,0,1.1,0.5,1.1,1s-0.5,1-1.1,1H17c-0.6,0-1.1-0.5-1.1-1s0.5-1,1.1-1H47.2z"/>
			</g>
			<g>
				<polygon fill="#316CFF" points="11,15 11,30 10.7,30.4 1,22 				"/>
			</g>
			<g>
				<polygon fill="#FFD68D" points="23,41 1,63 1,22 10.7,30.4 				"/>
			</g>
			<g>
				<polygon fill="#FFD68D" points="63,22 63,63 41,41 53.3,30.4 				"/>
			</g>
			<g>
				<polygon fill="#316CFF" points="63,22 53.3,30.4 53,30 53,15 				"/>
			</g>
			<g>
				<polygon fill="#F2BD5F" points="63,63 1,63 23,41 26,38 38,38 41,41 				"/>
			</g>
			<g>
				<polygon fill="#316CFF" points="44,9 20,9 32,1 				"/>
			</g>
		</g>
		<path fill="#2D2D2D" d="M64,22c0-0.1,0-0.2,0-0.3c0,0,0,0,0-0.1c0-0.1-0.1-0.2-0.2-0.3c0,0,0,0,0,0c0,0,0,0,0,0
			c-0.1-0.1-0.1-0.1-0.2-0.2L54,14.5V11c0-1.7-1.3-3-3-3h-6.7L32.6,0.2c-0.3-0.2-0.8-0.2-1.1,0L19.7,8H13c-1.7,0-3,1.3-3,3v3.5
			l-9.6,6.7c-0.1,0-0.1,0.1-0.2,0.2c0,0,0,0,0,0c0,0,0,0,0,0c-0.1,0.1-0.1,0.2-0.2,0.3c0,0,0,0,0,0.1c0,0.1,0,0.2,0,0.3v41
			c0,0.1,0,0.3,0.1,0.4c0.1,0.2,0.3,0.4,0.5,0.5C0.7,64,0.9,64,1,64h62c0.1,0,0.3,0,0.4-0.1c0.2-0.1,0.4-0.3,0.5-0.5
			C64,63.3,64,63.1,64,63V22z M2,24.2l19.5,16.9L2,60.6V24.2z M26.4,39h11.2l23,23H3.4L26.4,39z M42.5,41.1L62,24.2v36.4L42.5,41.1z
			 M61.4,22.1L54,28.5V16.9L61.4,22.1z M32,2.2L40.7,8H23.3L32,2.2z M12,11c0-0.6,0.4-1,1-1h38c0.6,0,1,0.4,1,1v19
			c0,0.1,0,0.1,0,0.2l-11,9.5l-2.3-2.3C38.5,37.1,38.3,37,38,37H26c-0.3,0-0.5,0.1-0.7,0.3L23,39.6l-11-9.5c0-0.1,0-0.1,0-0.2V11z
			 M10,28.5l-7.4-6.4l7.4-5.2V28.5z"/>
	</g>
</g>
</svg>
